<svg version="1.1" viewBox="0 0 677.44 348.16" xml:space="preserve" xmlns="http://www.w3.org/2000/svg"><g transform="matrix(1.3333 0 0 -1.3333 0 348.16)"><g transform="scale(.1)"><path d="m4443.2 2094.2c0 39.74-30.9 71.75-70.63 71.75-39.74 0-71.75-32.01-71.75-71.75s32.01-70.64 71.75-70.64c39.73 0 70.63 30.9 70.63 70.64zm-130.13-794.75v471.51h117.89v-471.51h-117.89" fill="#ae1188"/><path d="m3930 1346.6c0-39.73 30.9-71.74 70.64-71.74 39.73 0 71.74 32.01 71.74 71.74 0 39.74-32.01 70.65-71.74 70.65-39.74 0-70.64-30.91-70.64-70.65zm130.43 794.76v-471.52h-117.88v471.52h117.88" fill="#d41355"/><path d="m3813 1976.8c-39.74 0-71.75-30.89-71.75-70.64 0-39.74 32.01-71.75 71.75-71.75 39.73 0 70.64 32.01 70.64 71.75 0 39.75-30.91 70.64-70.64 70.64zm794.75-130.13h-471.51v117.88h471.51v-117.88" fill="#d3088c"/><path d="m4560.5 1464c39.73 0 71.73 30.9 71.73 70.64s-32 71.75-71.73 71.75c-39.74 0-70.65-32.01-70.65-71.75s30.91-70.64 70.65-70.64zm-794.76 130.13h471.51v-117.87h-471.51v117.87" fill="#ec1642"/><path d="m3497.6 1191h150.26v108.47h-151.49v176.8h-131.33v-530.1c0-160.6 72.27-234.82 229.97-234.82h52.85v110.87c-106.89 0-150.27 30.731-150.27 140.92zm-1012.8-9.66c-8.45 3.61-48.21 21.7-102.45 21.7-98.82 0-172.34-73.5-172.34-197.63 0-133.25 83.86-196.49 172.43-196.49 51.69 0 97.53 18.16 102.36 21.769zm132.55 75.95v-503.21c0-180.86-82.01-308.77-294.36-308.77-83.31 0-143.16 15.649-153.53 18.481v108.6c13.96-4.121 75.08-20.211 136.85-20.211 132.18 0 178.49 65.59 178.49 155.73v11.043c-8.91-4.031-49.81-23.231-114.32-23.231-190.32 0-294.23 141.92-294.23 309.69 0 177.15 109.83 310.94 308.52 310.94 118.1 0 216.92-51.83 232.58-59.06zm-878.53-379.05c0 98.519-70.8 142.08-142.42 173.14-12.48 5.41-50.73 21.2-57.16 23.95-49.86 21.32-84.84 35.88-84.84 75.77 0 29.97 23.58 58.49 94 58.49 67.9 0 126.66-34.84 132.69-38.45l49.29 92.19c-3.62 2.41-68.69 53.03-190.42 53.03-128.95 0-218.34-69.83-218.34-175.89 0-94.9 67.23-136.97 130.88-163.17 8.1-3.34 64.41-27.161 76.82-32.09 50.37-20.008 74.52-40.692 74.52-73.852 0-35.976-33.48-68.867-104.75-68.867-74.64 0-138.61 41.699-149.21 48l-49.75-92.133c7.24-6.019 89.18-62.656 214.53-62.656 130.16 0 224.16 66.84 224.16 182.54zm1506.8 187.69c0 153.84-108.18 250.51-246.41 250.51-80.12 0-116.53-23.53-119.59-25.43v284.6h-132.57v-864.26h132.57v469.96c4.32 2.21 43.88 21.72 94.53 21.72 89.28 0 139.01-48.35 139.01-135.6v-356.08h132.55v354.57zm-2026.1-0.01-0.09 0.01c0 161.86-103.18 250.42-274.07 250.42-118.64 0-213.46-53.66-224.52-59.06v-545.94h132.58v469.99c14.445 6.4 53.808 21.69 98.547 21.69 90.209 0 135-50.48 135-135.6v-356.08h132.56zm752.32-354.57v588.12h-132.57v-588.12zm10.84 764.75c0 43.38-33.74 78.33-77.12 78.33-43.39 0-78.34-34.95-78.34-78.33 0-43.39 34.95-77.14 78.34-77.14 43.38 0 77.12 33.75 77.12 77.14zm-1534-764.75v833.74h136.53v-833.74h-136.53" fill="#4e3f3a"/><path d="m3834 748.19c0-4.671-3.36-8.031-9.65-8.031h-12.42v16.512h12.13c6.14 0 9.94-2.774 9.94-8.184zm0.44-16.66c7.17 2.629 12.13 8.328 12.13 17.399v0.289c0 4.98-1.61 9.211-4.68 12.293-3.94 3.937-9.78 6.129-17.39 6.129h-25v-56.289h12.43v18.128h9.79l11.99-18.128h14.46zm33.27 6.36c0-25.743-20.08-46.832-46.7-46.832-26.47 0-46.39 20.793-46.39 46.543v0.289c0 25.738 20.07 46.839 46.68 46.839 26.48 0 46.41-20.8 46.41-46.55zm-46.4 55.429c-31.08 0-55.58-25.261-55.58-55.429v-0.313c0-30.168 24.19-55.117 55.27-55.117 31.1 0 55.6 25.269 55.6 55.43v0.308c0 30.16-24.2 55.121-55.29 55.121" fill="#4e3f3a"/></g></g></svg>
